<svg width="1024" height="1024"><path d="M334.9980392156863,682.0 L305.9980392156863,654.0 L290.9980392156863,635.0 L264.9980392156863,588.0 L253.99803921568628,548.0 L243.0,548.0019607843137 L246.00196078431372,574.0 L255.00196078431372,604.0 L284.0019607843137,659.0 L321.0,701.9980392156863 L326.9980392156863,700.0 L334.9980392156863,682.0 Z M332.9980392156863,353.0 L328.9980392156863,336.0 L326.0,333.0019607843137 L319.0,334.0019607843137 L282.0019607843137,379.0 L268.0019607843137,402.0 L254.00196078431372,434.0 L244.00196078431372,470.0 L244.0,482.9980392156863 L254.99803921568628,483.0 L267.9980392156863,440.0 L288.9980392156863,401.0 L305.9980392156863,379.0 L332.9980392156863,353.0 Z M289.9980392156863,697.0 L289.9980392156863,697.0 Z M296.9980392156863,757.0 L296.9980392156863,757.0 Z M297.9980392156863,617.0 L297.9980392156863,617.0 Z M298.9980392156863,619.0 L298.9980392156863,619.0 Z M299.9980392156863,756.0 L299.9980392156863,756.0 Z M301.9980392156863,623.0 L301.9980392156863,623.0 Z M302.9980392156863,621.0 L302.9980392156863,621.0 Z M303.9980392156863,626.0 L303.9980392156863,626.0 Z M308.9980392156863,598.0 L308.9980392156863,598.0 Z M354.9980392156863,627.0 L350.0,623.0019607843137 L340.0,634.0019607843137 L321.9980392156863,619.0 L312.0,603.0019607843137 L307.0019607843137,610.0 L309.0,634.9980392156863 L312.0,629.9980392156863 L335.0,643.9980392156863 L347.0,645.9980392156863 L354.9980392156863,627.0 Z M309.9980392156863,720.0 L309.9980392156863,720.0 Z M332.9980392156863,408.0 L332.9980392156863,399.0 L324.0,391.0019607843137 L316.0,389.0019607843137 L310.0019607843137,402.0 L313.0019607843137,409.0 L326.0,413.9980392156863 L332.9980392156863,408.0 Z M313.9980392156863,731.0 L313.0,729.0019607843137 L313.9980392156863,731.0 Z M316.9980392156863,735.0 L316.9980392156863,735.0 Z M317.9980392156863,734.0 L317.9980392156863,734.0 Z M318.9980392156863,773.0 L318.9980392156863,773.0 Z M320.9980392156863,738.0 L320.9980392156863,738.0 Z M321.9980392156863,737.0 L321.9980392156863,737.0 Z M323.9980392156863,739.0 L321.0019607843137,739.0 L323.9980392156863,739.0 Z M323.9980392156863,583.0 L323.9980392156863,583.0 Z M324.9980392156863,738.0 L324.9980392156863,738.0 Z M325.9980392156863,578.0 L325.0,576.0019607843137 L325.9980392156863,578.0 Z M331.9980392156863,743.0 L330.0,738.0019607843137 L324.0019607843137,739.0 L325.0,743.9980392156863 L331.9980392156863,743.0 Z M348.9980392156863,606.0 L330.0,586.0019607843137 L325.0019607843137,588.0 L336.0,600.9980392156863 L347.0,607.9980392156863 L348.9980392156863,606.0 Z M331.9980392156863,751.0 L329.0,747.0019607843137 L328.0019607843137,751.0 L331.9980392156863,751.0 Z M375.9980392156863,509.0 L371.9980392156863,464.0 L369.0,457.0019607843137 L367.0019607843137,467.0 L359.0019607843137,472.0 L359.0019607843137,479.0 L355.0019607843137,480.0 L355.0019607843137,487.0 L351.0019607843137,488.0 L349.0019607843137,507.0 L331.0019607843137,509.0 L375.9980392156863,509.0 Z M375.9980392156863,527.0 L375.0,521.0019607843137 L331.0019607843137,522.0 L346.0019607843137,523.0 L341.0,523.0019607843137 L339.0019607843137,528.0 L339.0019607843137,559.0 L335.0019607843137,560.0 L331.0019607843137,574.0 L334.0,581.9980392156863 L351.0,580.9980392156863 L358.9980392156863,565.0 L372.9980392156863,558.0 L375.9980392156863,527.0 Z M333.9980392156863,739.0 L331.0019607843137,739.0 L333.9980392156863,739.0 Z M334.9980392156863,499.0 L334.9980392156863,499.0 Z M334.9980392156863,556.0 L334.9980392156863,556.0 Z M334.9980392156863,566.0 L334.9980392156863,566.0 Z M807.9980392156863,530.0 L803.9980392156863,465.0 L794.9980392156863,426.0 L784.9980392156863,399.0 L752.9980392156863,341.0 L726.9980392156863,308.0 L704.0,285.0019607843137 L654.0,247.00196078431372 L591.0,217.00196078431372 L539.0,204.00196078431372 L474.0,202.00196078431372 L472.0,243.99803921568628 L483.0,243.99803921568628 L487.0,239.99803921568628 L489.0,242.99803921568628 L538.0,245.99803921568628 L574.0,254.99803921568628 L624.0,276.9980392156863 L652.0,296.9980392156863 L664.0,297.9980392156863 L673.0019607843137,306.0 L676.0019607843137,316.0 L704.0019607843137,344.0 L736.0019607843137,390.0 L759.0019607843137,445.0 L767.0019607843137,490.0 L781.0019607843137,504.0 L783.0019607843137,520.0 L777.0019607843137,533.0 L767.0019607843137,542.0 L758.0019607843137,591.0 L733.0019607843137,650.0 L707.0019607843137,688.0 L676.0019607843137,719.0 L672.0019607843137,729.0 L664.0,736.0019607843137 L653.0,737.0019607843137 L619.0,760.0019607843137 L586.0,775.0019607843137 L549.0,786.0019607843137 L519.0,791.0019607843137 L464.0,790.0019607843137 L428.0,783.0019607843137 L402.0,774.0019607843137 L397.0,775.0019607843137 L396.0,772.0019607843137 L392.0,773.0019607843137 L393.9980392156863,772.0 L391.0,770.0019607843137 L377.0,766.0019607843137 L358.0,754.0019607843137 L352.0,754.0019607843137 L353.0,751.0019607843137 L340.0,745.0019607843137 L338.0,741.0019607843137 L333.0019607843137,744.0 L335.0019607843137,759.0 L339.0019607843137,760.0 L339.0019607843137,767.0 L347.0,771.9980392156863 L348.0,775.9980392156863 L355.0,775.9980392156863 L356.0,779.9980392156863 L363.0019607843137,784.0 L364.0019607843137,795.0 L367.0019607843137,796.0 L369.0,804.9980392156863 L372.0,803.9980392156863 L382.0,811.9980392156863 L383.0,808.9980392156863 L385.0,812.9980392156863 L407.0,820.9980392156863 L452.0,830.9980392156863 L536.0,830.9980392156863 L577.0,821.9980392156863 L619.0,805.9980392156863 L658.0,784.9980392156863 L687.0,763.9980392156863 L725.9980392156863,727.0 L750.9980392156863,696.0 L770.9980392156863,664.0 L791.9980392156863,618.0 L803.9980392156863,571.0 L807.9980392156863,530.0 Z M335.9980392156863,494.0 L335.9980392156863,494.0 Z M336.9980392156863,741.0 L336.9980392156863,741.0 Z M382.9980392156863,325.0 L351.0,322.0019607843137 L338.0,331.0019607843137 L337.0019607843137,335.0 L344.0,346.9980392156863 L382.9980392156863,325.0 Z M338.9980392156863,489.0 L338.9980392156863,489.0 Z M338.0,581.0019607843137 L338.0,581.0019607843137 Z M383.9980392156863,709.0 L344.0,687.0019607843137 L337.0019607843137,700.0 L350.0,711.9980392156863 L383.9980392156863,709.0 Z M339.9980392156863,486.0 L339.9980392156863,486.0 Z M339.9980392156863,490.0 L339.9980392156863,490.0 Z M341.0,580.0019607843137 L341.0,580.0019607843137 Z M342.0,747.0019607843137 L339.9980392156863,747.0 L342.0,747.0019607843137 Z M340.9980392156863,788.0 L340.9980392156863,788.0 Z M342.9980392156863,482.0 L340.0019607843137,482.0 L342.9980392156863,482.0 Z M343.9980392156863,481.0 L341.0019607843137,480.0 L343.9980392156863,481.0 Z M342.9980392156863,790.0 L342.9980392156863,790.0 Z M343.9980392156863,406.0 L343.9980392156863,406.0 Z M343.9980392156863,408.0 L343.9980392156863,408.0 Z M343.9980392156863,478.0 L343.9980392156863,478.0 Z M343.9980392156863,483.0 L343.9980392156863,483.0 Z M344.0,580.0019607843137 L344.0,580.0019607843137 Z M345.9980392156863,407.0 L345.9980392156863,407.0 Z M345.9980392156863,471.0 L345.9980392156863,471.0 Z M347.9980392156863,462.0 L347.9980392156863,462.0 Z M347.9980392156863,464.0 L347.9980392156863,464.0 Z M348.9980392156863,459.0 L348.9980392156863,459.0 Z M351.9980392156863,608.0 L347.0019607843137,608.0 L351.9980392156863,608.0 Z M348.9980392156863,793.0 L348.9980392156863,793.0 Z M349.9980392156863,458.0 L349.9980392156863,458.0 Z M506.9980392156863,341.0 L505.9980392156863,287.0 L501.9980392156863,279.0 L500.0,262.0019607843137 L461.0,264.0019607843137 L416.0,274.0019607843137 L368.0,295.0019607843137 L350.0019607843137,308.0 L351.0,312.9980392156863 L384.0,313.9980392156863 L393.0,301.9980392156863 L406.0,295.9980392156863 L419.0,296.9980392156863 L433.0,306.9980392156863 L459.0,301.9980392156863 L488.0,300.9980392156863 L493.0019607843137,304.0 L493.0019607843137,325.0 L488.0,330.0019607843137 L479.0,331.0019607843137 L473.9980392156863,326.0 L472.0,316.0019607843137 L439.0019607843137,321.0 L472.0,333.9980392156863 L496.0,347.9980392156863 L506.9980392156863,341.0 Z M351.9980392156863,400.0 L351.9980392156863,400.0 Z M351.9980392156863,405.0 L351.9980392156863,405.0 Z M505.9980392156863,752.0 L505.0,694.0019607843137 L504.0019607843137,711.0 L500.0019607843137,712.0 L500.0019607843137,723.0 L497.0019607843137,728.0 L499.0019607843137,732.0 L495.0,734.0019607843137 L454.0,732.0019607843137 L417.0,724.0019607843137 L403.0,718.0019607843137 L350.0019607843137,723.0 L352.0,728.9980392156863 L387.0,748.9980392156863 L450.0,768.9980392156863 L501.0,771.9980392156863 L501.9980392156863,757.0 L505.9980392156863,752.0 Z M351.9980392156863,796.0 L351.0,794.0019607843137 L351.9980392156863,796.0 Z M352.9980392156863,403.0 L352.9980392156863,403.0 Z M352.9980392156863,609.0 L352.9980392156863,609.0 Z M354.9980392156863,797.0 L352.0019607843137,797.0 L354.9980392156863,797.0 Z M355.9980392156863,753.0 L355.9980392156863,753.0 Z M356.9980392156863,754.0 L356.9980392156863,754.0 Z M358.9980392156863,431.0 L358.9980392156863,431.0 Z M359.9980392156863,428.0 L359.9980392156863,428.0 Z M359.9980392156863,430.0 L359.9980392156863,430.0 Z M359.9980392156863,448.0 L359.9980392156863,448.0 Z M359.9980392156863,453.0 L359.9980392156863,453.0 Z M360.0,758.0019607843137 L360.0,758.0019607843137 Z M360.9980392156863,801.0 L360.9980392156863,801.0 Z M362.9980392156863,426.0 L362.9980392156863,426.0 Z M363.9980392156863,802.0 L361.0019607843137,802.0 L363.9980392156863,802.0 Z M366.9980392156863,439.0 L366.9980392156863,439.0 Z M367.9980392156863,443.0 L365.0019607843137,443.0 L367.9980392156863,443.0 Z M367.9980392156863,804.0 L367.9980392156863,804.0 Z M368.9980392156863,448.0 L368.9980392156863,448.0 Z M368.9980392156863,456.0 L368.0,454.0019607843137 L368.9980392156863,456.0 Z M368.0,763.0019607843137 L368.0,763.0019607843137 Z M369.9980392156863,454.0 L369.0,452.0019607843137 L369.9980392156863,454.0 Z M371.9980392156863,806.0 L371.9980392156863,806.0 Z M375.9980392156863,808.0 L375.9980392156863,808.0 Z M392.9980392156863,664.0 L390.9980392156863,651.0 L381.0,643.0019607843137 L375.0019607843137,652.0 L375.0019607843137,671.0 L382.0,682.9980392156863 L389.9980392156863,683.0 L392.9980392156863,664.0 Z M377.9980392156863,765.0 L377.9980392156863,765.0 Z M379.0,808.0019607843137 L379.0,808.0019607843137 Z M381.9980392156863,392.0 L379.0019607843137,392.0 L381.9980392156863,392.0 Z M440.9980392156863,509.0 L436.9980392156863,485.0 L426.9980392156863,478.0 L425.9980392156863,472.0 L413.0,459.0019607843137 L407.0,464.0019607843137 L398.0,464.0019607843137 L391.9980392156863,450.0 L385.0,444.0019607843137 L380.0,445.0019607843137 L385.0019607843137,509.0 L440.9980392156863,509.0 Z M407.9980392156863,382.0 L405.9980392156863,372.0 L395.0,365.0019607843137 L380.0019607843137,389.0 L384.0,391.9980392156863 L407.9980392156863,382.0 Z M407.9980392156863,396.0 L407.0,393.0019607843137 L401.0,395.0019607843137 L382.0019607843137,405.0 L381.0019607843137,415.0 L393.0019607843137,431.0 L392.0,439.9980392156863 L398.9980392156863,432.0 L396.9980392156863,419.0 L402.9980392156863,421.0 L401.9980392156863,415.0 L407.9980392156863,396.0 Z M401.9980392156863,566.0 L396.9980392156863,561.0 L400.9980392156863,549.0 L392.0,540.0019607843137 L386.0,539.0019607843137 L381.0019607843137,576.0 L389.0,578.9980392156863 L401.9980392156863,566.0 Z M385.0,770.0019607843137 L385.0,770.0019607843137 Z M387.0,422.0019607843137 L387.0,422.0019607843137 Z M388.9980392156863,770.0 L388.9980392156863,770.0 Z M388.0,812.0019607843137 L388.0,812.0019607843137 Z M427.9980392156863,595.0 L411.0,587.0019607843137 L398.0,590.0019607843137 L388.0019607843137,601.0 L394.0019607843137,609.0 L396.0019607843137,627.0 L399.0,629.9980392156863 L406.0,632.9980392156863 L411.9980392156863,630.0 L416.9980392156863,621.0 L417.9980392156863,610.0 L423.9980392156863,605.0 L427.9980392156863,595.0 Z M399.9980392156863,774.0 L397.0019607843137,774.0 L399.9980392156863,774.0 Z M401.0,816.0019607843137 L401.0,816.0019607843137 Z M403.9980392156863,423.0 L403.0,421.0019607843137 L403.9980392156863,423.0 Z M404.9980392156863,424.0 L404.9980392156863,424.0 Z M405.9980392156863,425.0 L405.9980392156863,425.0 Z M440.9980392156863,525.0 L440.0,521.0019607843137 L422.0019607843137,522.0 L423.0019607843137,532.0 L404.0019607843137,548.0 L412.0019607843137,560.0 L404.0019607843137,567.0 L406.0,569.9980392156863 L435.9980392156863,552.0 L440.9980392156863,525.0 Z M406.9980392156863,426.0 L406.9980392156863,426.0 Z M460.9980392156863,460.0 L441.0,447.0019607843137 L435.0,450.0019607843137 L426.9980392156863,441.0 L428.9980392156863,434.0 L435.0,433.9980392156863 L437.0,427.9980392156863 L438.9980392156863,432.0 L438.9980392156863,425.0 L423.9980392156863,391.0 L418.0,390.0019607843137 L415.0019607843137,403.0 L429.0019607843137,417.0 L430.0019607843137,429.0 L426.0,433.0019607843137 L420.0,428.0019607843137 L406.0019607843137,428.0 L416.0019607843137,436.0 L417.0019607843137,451.0 L429.0,465.9980392156863 L438.0,461.9980392156863 L451.0019607843137,472.0 L452.0019607843137,476.0 L448.0,476.0019607843137 L443.0019607843137,482.0 L449.0,504.9980392156863 L460.9980392156863,460.0 Z M431.9980392156863,679.0 L422.9980392156863,662.0 L427.9980392156863,655.0 L414.0,650.0019607843137 L406.0019607843137,665.0 L409.0019607843137,681.0 L416.0,688.9980392156863 L428.0,693.9980392156863 L431.9980392156863,679.0 Z M414.9980392156863,392.0 L414.9980392156863,392.0 Z M415.9980392156863,394.0 L415.9980392156863,394.0 Z M415.9980392156863,456.0 L415.9980392156863,456.0 Z M415.0,658.0019607843137 L415.0,658.0019607843137 Z M416.9980392156863,454.0 L416.9980392156863,454.0 Z M497.9980392156863,645.0 L480.9980392156863,642.0 L473.9980392156863,615.0 L477.9980392156863,611.0 L476.0,608.0019607843137 L453.9980392156863,607.0 L454.9980392156863,585.0 L462.9980392156863,578.0 L449.0,525.0019607843137 L443.0019607843137,554.0 L451.0019607843137,563.0 L451.0019607843137,576.0 L437.0019607843137,594.0 L419.0019607843137,641.0 L446.0,648.9980392156863 L444.9980392156863,630.0 L451.0,616.9980392156863 L467.0019607843137,622.0 L470.0,652.9980392156863 L490.0,654.9980392156863 L497.9980392156863,645.0 Z M436.0,426.0019607843137 L436.0,426.0019607843137 Z M447.9980392156863,244.0 L447.9980392156863,244.0 Z M450.9980392156863,474.0 L450.0,472.0019607843137 L450.9980392156863,474.0 Z M493.9980392156863,509.0 L471.0,487.0019607843137 L461.0019607843137,483.0 L458.0,509.9980392156863 L493.9980392156863,509.0 Z M520.9980392156863,537.0 L519.0,531.0019607843137 L504.0,531.0019607843137 L494.0,521.0019607843137 L457.0019607843137,522.0 L460.0019607843137,545.0 L469.0,545.9980392156863 L475.0,550.9980392156863 L487.0,546.9980392156863 L501.0,536.9980392156863 L520.9980392156863,537.0 Z M475.9980392156863,668.0 L474.0,663.0019607843137 L466.0019607843137,664.0 L463.0019607843137,683.0 L458.0,691.9980392156863 L472.9980392156863,685.0 L475.9980392156863,668.0 Z M463.9980392156863,342.0 L463.9980392156863,342.0 Z M490.9980392156863,360.0 L490.9980392156863,357.0 L482.0,350.0019607843137 L463.0019607843137,343.0 L469.0019607843137,353.0 L469.0,368.9980392156863 L489.0,366.9980392156863 L490.9980392156863,360.0 Z M508.9980392156863,496.0 L492.0,472.0019607843137 L468.0019607843137,462.0 L466.0019607843137,468.0 L485.0,479.9980392156863 L494.0019607843137,489.0 L499.0,500.9980392156863 L508.9980392156863,496.0 Z M470.9980392156863,203.0 L468.0019607843137,203.0 L470.9980392156863,203.0 Z M497.9980392156863,389.0 L491.0,377.0019607843137 L484.0019607843137,379.0 L490.0019607843137,383.0 L489.0,400.9980392156863 L497.9980392156863,389.0 Z M520.9980392156863,605.0 L519.0,599.0019607843137 L484.0019607843137,608.0 L488.0,612.9980392156863 L495.0,612.9980392156863 L520.9980392156863,605.0 Z M485.9980392156863,678.0 L485.9980392156863,678.0 Z M490.0,241.00196078431372 L490.0,241.00196078431372 Z M493.9980392156863,690.0 L493.9980392156863,690.0 Z M495.9980392156863,689.0 L495.9980392156863,689.0 Z M496.9980392156863,688.0 L496.9980392156863,688.0 Z M498.9980392156863,629.0 L498.9980392156863,629.0 Z M499.9980392156863,689.0 L497.0019607843137,688.0 L499.9980392156863,689.0 Z M500.9980392156863,690.0 L500.9980392156863,690.0 Z M501.9980392156863,691.0 L501.9980392156863,691.0 Z M504.9980392156863,692.0 L502.0019607843137,692.0 L504.9980392156863,692.0 Z M504.0,727.0019607843137 L504.0,723.9980392156863 L504.0,727.0019607843137 Z M505.9980392156863,662.0 L505.9980392156863,662.0 Z M637.9980392156863,310.0 L637.9980392156863,307.0 L627.0,299.0019607843137 L585.0,278.0019607843137 L549.0,267.0019607843137 L520.0019607843137,264.0 L516.0019607843137,288.0 L517.0,308.9980392156863 L535.0,305.9980392156863 L581.0,322.9980392156863 L635.0,313.9980392156863 L637.9980392156863,310.0 Z M637.9980392156863,727.0 L637.9980392156863,722.0 L634.0,720.0019607843137 L605.0,716.0019607843137 L587.0,710.0019607843137 L539.0,726.0019607843137 L534.0,719.9980392156863 L568.9980392156863,706.0 L537.0,687.0019607843137 L524.0019607843137,694.0 L522.0019607843137,715.0 L520.0,719.0019607843137 L518.0019607843137,717.0 L516.0019607843137,724.0 L516.0019607843137,753.0 L520.0019607843137,759.0 L520.0019607843137,770.0 L537.0,769.9980392156863 L575.0,759.9980392156863 L608.0,745.9980392156863 L637.9980392156863,727.0 Z M518.9980392156863,713.0 L518.0,711.0019607843137 L518.9980392156863,713.0 Z M519.9980392156863,636.0 L519.9980392156863,636.0 Z M519.9980392156863,695.0 L519.9980392156863,695.0 Z M523.9980392156863,654.0 L521.0019607843137,654.0 L523.9980392156863,654.0 Z M523.9980392156863,694.0 L523.9980392156863,694.0 Z M527.0,719.0019607843137 L527.0,719.0019607843137 Z M529.0,724.0019607843137 L526.9980392156863,724.0 L529.0,724.0019607843137 Z M531.0,710.0019607843137 L528.9980392156863,707.0 L531.0,698.9980392156863 L531.0,710.0019607843137 Z M530.9980392156863,663.0 L530.9980392156863,663.0 Z M532.0,694.0019607843137 L532.0,694.0019607843137 Z M535.9980392156863,344.0 L535.9980392156863,344.0 Z M536.0,696.0019607843137 L536.0,696.0019607843137 Z M537.0,716.0019607843137 L537.0,716.0019607843137 Z M537.9980392156863,343.0 L537.9980392156863,343.0 Z M537.9980392156863,345.0 L537.9980392156863,345.0 Z M612.9980392156863,405.0 L612.0,394.0019607843137 L568.0,380.0019607843137 L543.0,378.0019607843137 L536.0019607843137,388.0 L555.0019607843137,413.0 L553.0019607843137,414.0 L573.0019607843137,452.0 L591.0,499.9980392156863 L598.9980392156863,485.0 L593.9980392156863,483.0 L583.9980392156863,456.0 L556.9980392156863,402.0 L571.0,398.9980392156863 L594.0,409.9980392156863 L612.9980392156863,405.0 Z M627.9980392156863,630.0 L611.9980392156863,579.0 L609.0,574.0019607843137 L607.9980392156863,576.0 L607.9980392156863,568.0 L605.0,562.0019607843137 L601.9980392156863,565.0 L604.9980392156863,561.0 L599.9980392156863,555.0 L599.9980392156863,547.0 L591.0,529.0019607843137 L570.0019607843137,586.0 L536.0019607843137,645.0 L544.0,654.9980392156863 L565.0,652.9980392156863 L595.0,644.9980392156863 L627.9980392156863,630.0 Z M538.9980392156863,342.0 L538.9980392156863,342.0 Z M539.9980392156863,344.0 L537.0019607843137,344.0 L539.9980392156863,344.0 Z M544.9980392156863,417.0 L538.0,406.0019607843137 L537.0019607843137,420.0 L544.9980392156863,417.0 Z M538.9980392156863,625.0 L538.9980392156863,625.0 Z M540.0,699.0019607843137 L537.9980392156863,699.0 L540.0,699.0019607843137 Z M541.9980392156863,343.0 L539.0019607843137,342.0 L541.9980392156863,343.0 Z M541.9980392156863,340.0 L541.9980392156863,340.0 Z M542.9980392156863,342.0 L542.9980392156863,342.0 Z M543.9980392156863,339.0 L543.9980392156863,339.0 Z M544.9980392156863,338.0 L544.9980392156863,338.0 Z M625.9980392156863,376.0 L609.9980392156863,353.0 L589.0,331.0019607843137 L543.0019607843137,356.0 L546.0,366.9980392156863 L590.0,374.9980392156863 L616.0,384.9980392156863 L625.9980392156863,376.0 Z M545.9980392156863,340.0 L545.9980392156863,340.0 Z M548.9980392156863,337.0 L545.0019607843137,338.0 L548.9980392156863,337.0 Z M630.9980392156863,643.0 L629.0,641.0019607843137 L587.0,658.0019607843137 L546.0,666.0019607843137 L545.0019607843137,676.0 L590.0,700.9980392156863 L609.9980392156863,678.0 L630.9980392156863,643.0 Z M548.0,703.0019607843137 L548.0,703.0019607843137 Z M595.0,575.0019607843137 L591.0019607843137,576.0 L591.0019607843137,589.0 L587.0019607843137,590.0 L580.0019607843137,601.0 L582.0019607843137,607.0 L579.0019607843137,608.0 L579.0019607843137,615.0 L575.0019607843137,616.0 L575.0019607843137,627.0 L569.0,627.0019607843137 L567.0019607843137,636.0 L559.0,644.0019607843137 L554.0,644.0019607843137 L556.0019607843137,646.0 L554.0019607843137,651.0 L550.0,652.0019607843137 L565.9980392156863,622.0 L570.9980392156863,606.0 L574.9980392156863,603.0 L573.9980392156863,599.0 L590.0,562.9980392156863 L590.0,569.9980392156863 L590.9980392156863,565.0 L595.0019607843137,564.0 L595.0,575.0019607843137 Z M551.9980392156863,651.0 L549.0019607843137,651.0 L551.9980392156863,651.0 Z M550.0,677.0019607843137 L550.0,677.0019607843137 Z M555.9980392156863,334.0 L551.0,333.0019607843137 L550.0019607843137,336.0 L555.9980392156863,334.0 Z M554.0,405.0019607843137 L554.0,405.0019607843137 Z M557.9980392156863,333.0 L554.0019607843137,332.0 L557.9980392156863,333.0 Z M555.0,407.0019607843137 L555.0,407.0019607843137 Z M557.9980392156863,331.0 L557.9980392156863,331.0 Z M557.0,652.0019607843137 L557.0,652.0019607843137 Z M560.9980392156863,331.0 L560.9980392156863,331.0 Z M563.9980392156863,577.0 L563.9980392156863,577.0 Z M563.9980392156863,629.0 L563.0,627.0019607843137 L563.9980392156863,629.0 Z M567.9980392156863,621.0 L567.9980392156863,621.0 Z M570.9980392156863,611.0 L570.9980392156863,611.0 Z M576.9980392156863,539.0 L576.9980392156863,539.0 Z M578.9980392156863,594.0 L578.9980392156863,594.0 Z M586.9980392156863,575.0 L584.0019607843137,575.0 L585.0,577.9980392156863 L586.9980392156863,575.0 Z M587.9980392156863,573.0 L587.0,570.0019607843137 L587.9980392156863,573.0 Z M591.0,560.0019607843137 L591.0,560.0019607843137 Z M599.0,551.0019607843137 L592.9980392156863,554.0 L599.0,551.0019607843137 Z M653.9980392156863,338.0 L653.9980392156863,334.0 L646.0,331.0019607843137 L638.0,322.0019607843137 L614.0,325.0019607843137 L597.0019607843137,331.0 L625.0019607843137,357.0 L638.0,373.9980392156863 L644.9980392156863,372.0 L653.9980392156863,338.0 Z M659.9980392156863,509.0 L656.9980392156863,466.0 L647.9980392156863,430.0 L645.0,425.0019607843137 L630.0,424.0019607843137 L617.0019607843137,460.0 L637.0,452.9980392156863 L639.0019607843137,458.0 L635.0019607843137,460.0 L635.0,466.0019607843137 L632.0,459.0019607843137 L609.0019607843137,480.0 L598.0019607843137,509.0 L619.9980392156863,508.0 L633.0,467.9980392156863 L635.0019607843137,508.0 L631.0019607843137,509.0 L659.9980392156863,509.0 Z M659.9980392156863,540.0 L659.0,521.0019607843137 L599.0019607843137,522.0 L637.0,624.9980392156863 L642.9980392156863,616.0 L653.9980392156863,580.0 L659.9980392156863,540.0 Z M602.0,559.0019607843137 L601.0,556.9980392156863 L602.0,559.0019607843137 Z M654.9980392156863,700.0 L642.0,656.0019607843137 L622.0019607843137,681.0 L599.0019607843137,702.0 L617.0,708.9980392156863 L639.0,711.9980392156863 L645.0,703.9980392156863 L654.9980392156863,700.0 Z M605.0,567.0019607843137 L605.0,567.0019607843137 Z M616.9980392156863,466.0 L616.9980392156863,466.0 Z M617.0,523.0019607843137 L617.0,523.0019607843137 Z M617.0,525.0019607843137 L617.0,525.0019607843137 Z M619.0,529.0019607843137 L619.0,525.9980392156863 L619.0,529.0019607843137 Z M621.9980392156863,469.0 L621.9980392156863,469.0 Z M621.0,537.0019607843137 L621.0,537.0019607843137 Z M627.9980392156863,509.0 L623.0019607843137,509.0 L627.9980392156863,509.0 Z M624.0,545.0019607843137 L624.0,545.0019607843137 Z M625.0,548.0019607843137 L625.0,548.0019607843137 Z M626.9980392156863,459.0 L626.9980392156863,459.0 Z M631.9980392156863,499.0 L631.9980392156863,492.0 L627.0,489.0019607843137 L625.0019607843137,499.0 L631.9980392156863,499.0 Z M626.0,545.0019607843137 L626.0,545.0019607843137 Z M627.0,552.0019607843137 L626.0,549.9980392156863 L627.0,552.0019607843137 Z M627.9980392156863,458.0 L627.9980392156863,458.0 Z M628.9980392156863,461.0 L628.0,459.0019607843137 L628.9980392156863,461.0 Z M629.0,558.0019607843137 L629.0,558.0019607843137 Z M630.9980392156863,460.0 L630.9980392156863,460.0 Z M631.0,561.0019607843137 L631.0,561.0019607843137 Z M631.0,565.0019607843137 L631.0,565.0019607843137 Z M632.0,568.0019607843137 L632.0,568.0019607843137 Z M634.9980392156863,460.0 L634.9980392156863,460.0 Z M749.9980392156863,551.0 L749.9980392156863,546.0 L747.0,545.0019607843137 L723.0019607843137,577.0 L706.0,594.0019607843137 L646.0019607843137,636.0 L663.0019607843137,698.0 L667.0,702.9980392156863 L687.9980392156863,683.0 L679.9980392156863,671.0 L682.9980392156863,660.0 L692.0,654.9980392156863 L706.0,659.9980392156863 L721.9980392156863,634.0 L735.9980392156863,603.0 L749.9980392156863,551.0 Z M749.9980392156863,486.0 L743.9980392156863,454.0 L720.9980392156863,399.0 L692.9980392156863,358.0 L666.0,331.0019607843137 L662.0019607843137,337.0 L652.0019607843137,377.0 L662.0019607843137,390.0 L663.0019607843137,406.0 L705.0,434.9980392156863 L729.0019607843137,461.0 L744.0019607843137,485.0 L749.9980392156863,486.0 Z M736.9980392156863,538.0 L727.0,521.0019607843137 L674.0,521.0019607843137 L668.0019607843137,576.0 L654.0019607843137,615.0 L666.0,609.9980392156863 L697.0,586.9980392156863 L719.9980392156863,564.0 L736.9980392156863,538.0 Z M735.9980392156863,495.0 L722.9980392156863,470.0 L704.0,448.0019607843137 L674.0,425.0019607843137 L660.0,417.0019607843137 L656.0019607843137,419.0 L669.0019607843137,464.0 L674.0,509.9980392156863 L727.0,509.9980392156863 L735.9980392156863,495.0 Z M678.0,555.0019607843137 L678.0,555.0019607843137 Z M768.9980392156863,518.0 L766.9980392156863,508.0 L759.0,502.0019607843137 L749.0,503.0019607843137 L742.0019607843137,511.0 L742.0019607843137,520.0 L751.0,528.9980392156863 L762.0,527.9980392156863 L768.9980392156863,518.0 Z" fill="black" stroke="black" stroke-width="1"/></svg>